<?xml version="1.0" encoding="utf-8"?>
<!-- Generator: Adobe Illustrator 25.4.1, SVG Export Plug-In . SVG Version: 6.00 Build 0)  -->
<svg version="1.1" id="Layer_1" xmlns="http://www.w3.org/2000/svg" xmlns:xlink="http://www.w3.org/1999/xlink" x="0px" y="0px"
	 viewBox="0 0 528 305" style="enable-background:new 0 0 528 305;" xml:space="preserve">
<style type="text/css">
	.st0{fill:none;stroke:#000000;stroke-miterlimit:10;}
</style>
<g>
	<g>
		<path d="M134.7,43.4c-3.71-3.79-9.24-3.04-13.6-0.88c-4.93,2.45-8.79,7-11.7,11.57c-3.07,4.83-5.48,10.65-5.98,16.39
			c-0.26,3.05,0.71,5.76,2.97,7.84c2.1,1.93,4.63,3.44,7.05,4.95c4.65,2.9,9.69,5.76,12.94,10.31c2.78,3.88,4.03,8.57,3.98,13.31
			c-0.11,10.13-5.6,19.66-13.75,25.5c-10.56,7.57-23.89,9.86-36.6,10.57c-1.92,0.11-1.93,3.11,0,3c11.32-0.63,22.94-2.45,33.06-7.85
			c9.13-4.87,16.2-12.7,19.04-22.76c2.67-9.45,1.02-19.85-6.22-26.84c-4.07-3.93-9.14-6.55-13.82-9.66
			c-2.27-1.51-5.21-3.23-5.65-6.17c-0.42-2.82,0.63-6.01,1.52-8.66c2.02-6.03,5.58-11.58,10.26-15.89c3.47-3.2,10.3-6.75,14.36-2.6
			C133.93,46.91,136.05,44.78,134.7,43.4L134.7,43.4z"/>
	</g>
</g>
<g>
	<g>
		<path d="M177.54,45.15c-3.27,5.4-4.44,11.62-5.17,17.8c-0.79,6.69-1.4,13.39-2.28,20.07c-1.84,13.98-4.3,27.88-7.34,41.64
			c-1.71,7.74-3.61,15.44-5.68,23.09c-0.51,1.87,2.39,2.66,2.89,0.8c7.27-26.79,12.21-54.13,15-81.75c0.7-6.92,1.5-14.07,5.17-20.14
			C181.13,45.01,178.53,43.5,177.54,45.15L177.54,45.15z"/>
	</g>
</g>
<g>
	<g>
		<path d="M179.4,47.54c12.02-4.94,27.1,0.43,32.6,12.39c2.73,5.94,2.86,12.98,0.8,19.15c-1.03,3.08-2.67,6-4.85,8.42
			c-1.15,1.27-2.62,2.51-2.75,4.34c-0.1,1.51,0.74,2.81,2.06,3.51c1.37,0.72,2.96,0.8,4.47,0.92c1.51,0.12,3,0.45,4.44,0.93
			c2.86,0.95,5.48,2.59,7.7,4.63c4.55,4.19,7.62,10.07,8.4,16.22c0.87,6.87-1.13,14.82-7.1,18.89c-3.3,2.25-7.19,3.6-10.93,4.9
			c-3.96,1.37-7.99,2.52-12.07,3.44c-16.29,3.68-33.41,3.76-49.71,0.14c-2.04-0.45-4.07-0.97-6.09-1.53
			c-1.86-0.52-2.66,2.37-0.8,2.89c16.85,4.71,34.68,5.52,51.9,2.49c8.48-1.49,16.97-3.85,24.85-7.37c3.72-1.66,7.06-3.93,9.36-7.35
			c2.15-3.19,3.26-7.02,3.66-10.81c1.36-12.87-7.43-27.12-20.4-30c-1.56-0.35-3.13-0.36-4.7-0.61c-0.53-0.08-1.44-0.18-1.83-0.62
			c-0.55-0.61,0.27-1.39,0.69-1.84c2.41-2.6,4.4-5.35,5.79-8.63c2.69-6.36,3.11-13.72,1.02-20.32C211.62,48.3,197,40.56,183.39,43.2
			c-1.64,0.32-3.24,0.81-4.79,1.45C176.84,45.37,177.61,48.27,179.4,47.54L179.4,47.54z"/>
	</g>
</g>
<g>
	<g>
		<path d="M303.09,37.97c-11.65-5.61-25.64-1.91-34.63,6.89c-4.5,4.4-7.81,9.87-10.08,15.71c-2.26,5.8-3.62,12.16-3.32,18.4
			c0.29,6.21,2.37,12.27,6.92,16.65c4.7,4.53,10.89,7.14,16.1,11.01c5.04,3.75,9.77,8.62,11.88,14.66
			c1.96,5.59,1.88,12.24-1.75,17.16c-3.67,4.98-10.01,7.04-15.73,8.57c-7.22,1.94-14.53,3.63-21.83,5.25
			c-15.02,3.33-30.15,6.12-45.37,8.36c-30.62,4.52-61.57,6.8-92.52,6.85c-7.59,0.01-15.22,0.04-22.79-0.43
			c-6.9-0.42-13.9-1.64-19.82-5.43c-10.23-6.55-15.44-19.4-10.65-30.93c1.13-2.72,2.8-5.17,4.91-7.23c1.38-1.35-0.74-3.47-2.12-2.12
			c-9.07,8.88-9.86,23.48-2.91,33.83c3.32,4.95,8.06,8.93,13.53,11.31c6.81,2.96,14.29,3.54,21.62,3.76
			c31.18,0.93,62.47-0.62,93.44-4.31c15.49-1.85,30.91-4.24,46.22-7.2c7.75-1.5,15.47-3.13,23.16-4.91
			c6.99-1.62,14.17-3.05,20.94-5.43c5.73-2.02,11.33-5.29,14.03-10.99c2.65-5.61,2.42-12.29,0.14-17.98
			c-2.39-5.96-6.86-10.77-11.89-14.65c-2.69-2.07-5.55-3.87-8.46-5.62c-2.8-1.68-5.63-3.38-8-5.66c-9.4-9.06-6.52-24.87-1.4-35.39
			c2.79-5.73,6.81-11,12.1-14.63c5.19-3.56,11.5-5.49,17.8-5.18c3.11,0.15,6.18,0.9,8.98,2.26
			C303.31,41.4,304.83,38.81,303.09,37.97L303.09,37.97z"/>
	</g>
</g>
<g>
	<g>
		<path d="M248.39,164c-0.09,26.71,0.4,53.42,1.47,80.11c0.31,7.63,0.66,15.25,1.06,22.87c0.1,1.92,3.1,1.93,3,0
			c-1.4-26.67-2.23-53.38-2.47-80.08c-0.07-7.63-0.09-15.26-0.06-22.89C251.4,162.07,248.4,162.07,248.39,164L248.39,164z"/>
	</g>
</g>
<g>
	<g>
		<path d="M290.5,163c0,21.83,0,43.67,0,65.5c0,6.17,0,12.33,0,18.5c0,1.93,3,1.93,3,0c0-21.83,0-43.67,0-65.5
			c0-6.17,0-12.33,0-18.5C293.5,161.07,290.5,161.07,290.5,163L290.5,163z"/>
	</g>
</g>
<g>
	<g>
		<path d="M294.33,162.17c17.25-4.06,34.95-5.89,52.66-5.49c1.93,0.04,1.93-2.96,0-3c-17.97-0.41-35.96,1.49-53.46,5.6
			C291.66,159.72,292.45,162.61,294.33,162.17L294.33,162.17z"/>
	</g>
</g>
<g>
	<g>
		<path d="M297.64,204.28c15.14-4.43,29.86-10.23,43.96-17.3c1.73-0.87,0.21-3.45-1.51-2.59c-13.87,6.96-28.35,12.64-43.24,16.99
			C294.99,201.93,295.78,204.82,297.64,204.28L297.64,204.28z"/>
	</g>
</g>
<g>
	<g>
		<path d="M292.05,247.96c15.89-6.97,31.34-14.96,46.2-23.92c4.2-2.53,8.35-5.14,12.45-7.83c1.61-1.05,0.11-3.65-1.51-2.59
			c-14.53,9.5-29.66,18.06-45.29,25.6c-4.42,2.13-8.87,4.18-13.36,6.15C288.77,246.14,290.29,248.72,292.05,247.96L292.05,247.96z"
			/>
	</g>
</g>
<g>
	<g>
		<path d="M395.67,148.15c-5.81-5.26-14.63-4.89-21.07-0.98c-7.41,4.5-10.69,13.23-11.46,21.5c-0.82,8.84,0.57,18.29,6.82,24.98
			c5.48,5.86,13.67,9,21.65,7.83c9.03-1.32,16.9-7.86,19.98-16.42c0.66-1.82-2.24-2.6-2.89-0.8c-2.38,6.61-8.17,11.77-14.9,13.68
			c-6.82,1.94-14.23,0.11-19.63-4.44c-2.65-2.23-4.84-5.04-6.17-8.25c-1.67-4.02-2.08-8.53-2.04-12.84
			c0.06-7.42,1.94-15.54,7.6-20.75c5.22-4.81,14.4-6.48,20-1.4C394.98,151.56,397.11,149.44,395.67,148.15L395.67,148.15z"/>
	</g>
</g>
<g>
	<g>
		<path d="M415.71,136c-0.04,17.25,3.28,34.45,9.77,50.43c0.72,1.77,3.62,0.99,2.89-0.8c-6.4-15.75-9.7-32.63-9.66-49.64
			C418.71,134.07,415.71,134.06,415.71,136L415.71,136z"/>
	</g>
</g>
<g>
	<g>
		<path d="M422.87,170.84c7.76-6.75,16.54-12.26,25.97-16.36c1.77-0.77,0.24-3.35-1.51-2.59c-9.67,4.21-18.62,9.91-26.57,16.83
			C419.29,169.99,421.42,172.1,422.87,170.84L422.87,170.84z"/>
	</g>
</g>
<g>
	<g>
		<path d="M446.13,119.56c6.37,16.88,11.37,34.25,14.95,51.93c0.38,1.89,3.27,1.09,2.89-0.8c-3.58-17.68-8.58-35.06-14.95-51.93
			C448.35,116.97,445.44,117.75,446.13,119.56L446.13,119.56z"/>
	</g>
</g>
<rect x="-0.5" y="-0.5" class="st0" width="529" height="306"/>
</svg>
